<svg xmlns="http://www.w3.org/2000/svg" viewBox="0 0 104 96" role="img" aria-label="VantexWeb VW mark">
  <defs>
    <linearGradient id="vantex-v" x1="17" y1="22" x2="54" y2="84" gradientUnits="userSpaceOnUse">
      <stop stop-color="#55aaa1"/><stop offset=".56" stop-color="#20857b"/><stop offset="1" stop-color="#14574f"/>
    </linearGradient>
    <linearGradient id="vantex-w" x1="52" y1="79" x2="92" y2="19" gradientUnits="userSpaceOnUse">
      <stop stop-color="#174f4a"/><stop offset=".5" stop-color="#20857b"/><stop offset="1" stop-color="#69b8af"/>
    </linearGradient>
  </defs>
  <g stroke-linejoin="round">
    <path d="M8 25h20.5L47 57.5 59.2 35H75L51.8 79.2c-2 3.9-7.5 4.1-9.8.3L8 25Z" fill="url(#vantex-v)"/>
    <path d="m44 72 15.8-29.1L68.2 60 83.8 23H96L69.1 79 59.8 61.6l-8 16.2c-2.1 4.2-7.2 4.1-9.5.2l-1.2-2.1L44 72Z" fill="url(#vantex-w)" stroke="#07100f" stroke-width="1.5"/>
  </g>
  <g fill="url(#vantex-w)">
    <rect x="82" y="17" width="7" height="7" rx=".7"/>
    <rect x="91" y="14" width="5.5" height="5.5" rx=".6"/>
    <rect x="87" y="6" width="5.5" height="5.5" rx=".6"/>
    <rect x="78" y="12" width="4.5" height="4.5" rx=".5"/>
    <rect x="96" y="8" width="3.5" height="3.5" rx=".4"/>
    <rect x="93" y="22" width="4" height="4" rx=".45"/>
    <rect x="83" y="8" width="3.5" height="3.5" rx=".4"/>
  </g>
</svg>
